<?xml version="1.0" encoding="UTF-8"?>
<svg id="_图层_1" data-name="图层 1" xmlns="http://www.w3.org/2000/svg" viewBox="0 0 512 512">
  <defs>
    <style>
      .cls-1 {
        fill: #eb5c25;
      }

      .cls-2 {
        fill: #fff;
      }

      .cls-3 {
        fill: #323333;
      }

      .cls-4 {
        fill: #8c3790;
      }

      .cls-5 {
        fill: #4685b4;
      }

      .cls-6 {
        fill: #73be60;
      }
    </style>
  </defs>
  <g>
    <path class="cls-5" d="M259,12c0-6.6-5.4-12-12-12H-241c-6.6,0-12,5.4-12,12v16H259V12Z"/>
    <path class="cls-3" d="M-241,512H247c6.6,0,12-5.4,12-12V28H-253v472c0,6.6,5.4,12,12,12Z"/>
  </g>
  <g>
    <path class="cls-6" d="M355,83c0-6.6-5.4-12-12-12H-145c-6.6,0-12,5.4-12,12v16H355v-16Z"/>
    <path class="cls-3" d="M-145,583h488c6.6,0,12-5.4,12-12V99H-157v472c0,6.6,5.4,12,12,12Z"/>
  </g>
  <g>
    <path class="cls-4" d="M451,170c0-6.6-5.4-12-12-12H-49c-6.6,0-12,5.4-12,12v16H451v-16Z"/>
    <path class="cls-3" d="M-49,670h488c6.6,0,12-5.4,12-12V186H-61v472c0,6.6,5.4,12,12,12Z"/>
  </g>
  <g>
    <path class="cls-1" d="M512,268c0-6.6-5.4-12-12-12H12c-6.6,0-12,5.4-12,12v16h512v-16Z"/>
    <path class="cls-3" d="M12,768h488c6.6,0,12-5.4,12-12v-472H0v472c0,6.6,5.4,12,12,12Z"/>
  </g>
  <path class="cls-2" d="M398.9,161.98c-5.88-1.28-12.02.52-16.28,4.78l-41.73,41.73c-10.36,10.36-27.16,10.36-37.52,0-10.36-10.36-10.36-27.16,0-37.52l41.67-41.67c4.26-4.26,6.06-10.39,4.78-16.28-1.29-5.89-5.5-10.72-11.15-12.81-43.9-16.23-95.22-6.73-130.54,28.58-34.94,34.94-44.6,85.53-29.08,129.14l-70.97,70.97c-20.72,20.72-20.72,54.32,0,75.04,20.72,20.72,54.32,20.72,75.04,0l70.97-70.97c43.61,15.52,94.2,5.86,129.14-29.08,35.38-35.38,44.84-86.82,28.49-130.77-2.1-5.64-6.93-9.84-12.81-11.13Z"/>
</svg>